<svg width="258" height="293" viewBox="0 0 258 293" fill="none" xmlns="http://www.w3.org/2000/svg">
<path fill-rule="evenodd" clip-rule="evenodd" d="M36.141 137.639C36.0565 137.495 35.9725 137.35 35.889 137.206C16.099 102.928 31.119 60.0731 65.3962 40.2832C99.6733 20.4933 150.973 30.9688 170.763 65.246C170.862 65.417 170.96 65.5883 171.057 65.7598L257.088 216.485L82.0496 216.485L36.141 137.639ZM85.535 113.018L41.9935 106.752L45.5546 82.0065L95.7265 89.2267L114.54 45.3099L137.52 55.1542L121.344 92.9135L166.676 99.4371L163.114 124.182L111.153 116.704L89.3347 167.637L66.3544 157.792L85.535 113.018Z" fill="#32D4FC"/>
</svg>
